<?xml version="1.0" encoding="iso-8859-1"?>
<!-- Generator: Adobe Illustrator 19.0.0, SVG Export Plug-In . SVG Version: 6.00 Build 0)  -->
<svg version="1.1" id="Capa_1" xmlns="http://www.w3.org/2000/svg" xmlns:xlink="http://www.w3.org/1999/xlink" x="0px" y="0px"
	 viewBox="0 0 512 512" style="enable-background:new 0 0 512 512;" xml:space="preserve">
<g>
	<g>
		<path d="M384,0H170.667c-2.837,0-5.547,1.131-7.552,3.115l-128,128C33.131,133.12,32,135.829,32,138.667v320
			c0,5.888,4.779,10.667,10.667,10.667H256c5.888,0,10.667-4.779,10.667-10.667S261.888,448,256,448H53.333V143.083L175.083,21.333
			h198.251v224c0,5.888,4.779,10.667,10.667,10.667c5.888,0,10.667-4.779,10.667-10.667V10.667C394.667,4.779,389.888,0,384,0z"/>
	</g>
</g>
<g>
	<g>
		<path d="M170.667,0C164.779,0,160,4.779,160,10.667V128H42.667C36.779,128,32,132.779,32,138.667s4.779,10.667,10.667,10.667h128
			c5.888,0,10.667-4.779,10.667-10.667v-128C181.333,4.779,176.555,0,170.667,0z"/>
	</g>
</g>
<g>
	<g>
		<path d="M471.915,298.987l-85.333-21.333c-1.685-0.448-3.477-0.448-5.163,0l-85.333,21.333c-4.757,1.195-8.085,5.461-8.085,10.347
			v128c0,32.981,70.357,64.853,91.904,73.835c1.301,0.555,2.709,0.832,4.096,0.832c1.387,0,2.795-0.277,4.096-0.832
			c21.568-8.96,91.904-40.832,91.904-73.835v-128C480,304.427,476.672,300.181,471.915,298.987z M458.667,437.333
			c0,12.096-38.528,36.736-74.667,52.416c-36.139-15.68-74.667-40.299-74.667-52.416V317.675L384,299.008l74.667,18.667V437.333z"/>
	</g>
</g>
<g>
	<g>
		<path d="M390.571,323.584c-2.603-2.027-5.995-2.773-9.152-1.941l-42.667,10.667c-4.757,1.195-8.085,5.461-8.085,10.347v52.011
			c0,5.888,4.779,10.667,10.667,10.667H384c5.888,0,10.667-4.779,10.667-10.667v-62.677
			C394.667,328.704,393.173,325.611,390.571,323.584z M373.333,384H352v-33.024l21.333-5.333V384z"/>
	</g>
</g>
<g>
	<g>
		<path d="M426.667,384H384c-5.888,0-10.667,4.779-10.667,10.667v59.819c0,3.669,1.899,7.104,5.013,9.045
			c1.728,1.088,3.691,1.621,5.653,1.621c1.6,0,3.2-0.363,4.693-1.088c19.456-9.515,36.757-20.117,45.12-27.648
			c2.24-2.048,3.52-4.907,3.52-7.936v-33.813C437.333,388.779,432.555,384,426.667,384z M416,423.445
			c-5.12,3.861-12.672,8.619-21.333,13.44v-31.552H416V423.445z"/>
	</g>
</g>
<g>
</g>
<g>
</g>
<g>
</g>
<g>
</g>
<g>
</g>
<g>
</g>
<g>
</g>
<g>
</g>
<g>
</g>
<g>
</g>
<g>
</g>
<g>
</g>
<g>
</g>
<g>
</g>
<g>
</g>
</svg>
