<?xml version="1.0" encoding="iso-8859-1"?>
<!-- Generator: Adobe Illustrator 19.0.0, SVG Export Plug-In . SVG Version: 6.00 Build 0)  -->
<svg version="1.1" id="Capa_1" xmlns="http://www.w3.org/2000/svg" xmlns:xlink="http://www.w3.org/1999/xlink" x="0px" y="0px"
	 viewBox="0 0 512 512" style="enable-background:new 0 0 512 512;" xml:space="preserve">
<g>
	<g>
		<path d="M414.007,375.317c-29.013-22.955-106.069-83.947-117.419-123.392c-8.128-28.245-37.739-44.608-66.005-36.523
			c-28.267,8.149-44.651,37.739-36.523,66.005c19.2,66.752,89.429,126.656,153.749,177.557c1.963,1.557,4.309,2.304,6.613,2.304
			c3.157,0,6.272-1.387,8.363-4.075c3.648-4.608,2.88-11.328-1.749-14.976c-61.717-48.853-129.024-106.048-146.475-166.72
			c-4.864-16.939,4.971-34.709,21.909-39.595c16.939-4.843,34.731,4.949,39.616,21.909c11.669,40.555,69.589,90.624,124.693,134.229
			c4.651,3.669,11.328,2.88,14.976-1.749C419.404,385.685,418.636,378.965,414.007,375.317z"/>
	</g>
</g>
<g>
	<g>
		<path d="M444.044,279.744c-24.917-20.224-61.333-50.304-66.645-55.296c-22.613-70.741-98.581-111.488-170.347-91.051
			c-35.627,10.24-65.109,33.728-83.051,66.155c-17.941,32.384-22.165,69.845-11.947,105.451
			c17.493,60.821-20.053,77.696-31.979,81.429c-5.632,1.749-8.768,7.723-6.997,13.355c1.408,4.565,5.632,7.488,10.176,7.488
			c1.067,0,2.133-0.171,3.157-0.491c32.64-10.197,64.299-44.523,46.123-107.691c-8.64-30.123-5.056-61.824,10.112-89.237
			c15.189-27.413,40.149-47.296,70.272-55.936c61.248-17.472,126.165,17.813,144.661,78.677c0.256,0.811,0.597,1.6,1.045,2.347
			c1.109,1.835,3.392,5.696,71.979,61.355c4.565,3.733,11.307,3.029,14.997-1.557C449.313,290.176,448.609,283.456,444.044,279.744z
			"/>
	</g>
</g>
<g>
	<g>
		<path d="M433.249,332.971c-79.168-62.677-92.715-82.539-95.68-92.843c-14.613-50.816-67.947-80.277-118.784-65.728
			c-49.237,14.165-77.568,64.939-65.899,118.144c21.547,98.091,5.461,120.789-38.741,134.613c-5.632,1.749-8.768,7.744-6.997,13.355
			c1.429,4.565,5.632,7.488,10.176,7.488c1.045,0,2.133-0.149,3.157-0.448c61.76-19.285,75.179-59.541,53.227-159.552
			c-9.237-42.048,12.672-82.048,50.944-93.056c39.659-11.349,81.045,11.605,92.416,51.115
			c4.16,14.507,15.552,34.496,102.955,103.659c4.651,3.691,11.328,2.859,14.976-1.749
			C438.646,343.339,437.878,336.619,433.249,332.971z"/>
	</g>
</g>
<g>
	<g>
		<path d="M391.521,408.448c-4.928-4.928-13.611-11.52-24.597-19.861c-36.096-27.392-96.512-73.216-111.36-124.885
			c-1.643-5.653-7.467-8.917-13.205-7.296c-5.653,1.643-8.917,7.531-7.296,13.205c16.811,58.496,80.768,107.008,118.976,136
			c9.92,7.531,18.496,14.037,22.4,17.941c2.091,2.069,4.821,3.115,7.552,3.115c2.731,0,5.461-1.045,7.531-3.136
			C395.681,419.371,395.681,412.608,391.521,408.448z"/>
	</g>
</g>
<g>
	<g>
		<path d="M316.854,472.469c-2.325-2.347-4.8-5.803-7.637-9.643c-10.603-14.4-26.624-36.16-53.227-36.16
			c-36.181,0-41.877,61.653-42.667,74.005c-0.363,5.888,4.117,10.944,9.984,11.307C223.542,512,223.756,512,223.99,512
			c5.589,0,10.283-4.352,10.645-10.005C236.001,479.936,244.428,448,255.99,448c15.829,0,27.029,15.232,36.032,27.499
			c3.584,4.843,6.805,9.109,9.749,12.053c4.16,4.16,10.923,4.16,15.083,0C321.014,483.392,321.014,476.629,316.854,472.469z"/>
	</g>
</g>
<g>
	<g>
		<path d="M212.79,370.091c-1.792-5.611-7.787-8.789-13.397-6.912c-5.611,1.792-8.704,7.787-6.912,13.397
			c9.109,28.523-8.832,84.501-35.797,93.269c-5.589,1.835-8.661,7.829-6.848,13.44c1.472,4.523,5.653,7.381,10.155,7.381
			c1.088,0,2.197-0.171,3.264-0.512C204.321,476.821,224.118,405.525,212.79,370.091z"/>
	</g>
</g>
<g>
	<g>
		<path d="M440.63,224.512c-13.333-4.331-23.808-21.248-35.947-40.811c-25.707-41.515-60.928-98.368-159.36-98.368
			c-99.989,0-181.333,81.344-181.333,181.333c0,5.888,4.779,10.667,10.667,10.667s10.667-4.779,10.667-10.667
			c0-88.235,71.765-160,160-160c86.549,0,116.864,48.939,141.227,88.256c14.336,23.147,26.709,43.136,47.488,49.877
			c5.653,1.856,11.648-1.259,13.44-6.848C449.313,232.341,446.241,226.325,440.63,224.512z"/>
	</g>
</g>
<g>
	<g>
		<path d="M94.86,336.555c-3.84-7.68-9.536-21.653-9.536-27.221c0-5.888-4.779-10.667-10.667-10.667s-10.667,4.779-10.667,10.667
			c0,12.544,9.813,32.832,11.776,36.779c1.877,3.733,5.632,5.888,9.557,5.888c1.621,0,3.243-0.363,4.757-1.131
			C95.35,348.224,97.505,341.824,94.86,336.555z"/>
	</g>
</g>
<g>
	<g>
		<path d="M403.766,111.808c-14.635-24.128-79.253-69.141-169.109-69.141c-95.552,0-146.773,49.899-158.443,69.141
			c-3.072,5.035-1.451,11.584,3.584,14.635s11.605,1.472,14.635-3.584C103.713,107.584,149.366,64,234.657,64
			c82.005,0,140.352,41.536,150.869,58.859c2.005,3.328,5.525,5.141,9.131,5.141c1.899,0,3.797-0.491,5.525-1.536
			C405.217,123.392,406.838,116.843,403.766,111.808z"/>
	</g>
</g>
<g>
	<g>
		<path d="M355.468,21.931c-4.139-1.429-8.064-2.901-11.989-4.352C320.225,8.939,296.182,0,234.657,0
			c-56.384,0-70.528,7.253-88.448,16.427c-3.627,1.856-7.445,3.819-11.947,5.845c-5.355,2.411-7.765,8.725-5.355,14.101
			c2.411,5.355,8.747,7.787,14.101,5.355c4.885-2.176,9.045-4.309,12.971-6.315c15.915-8.171,27.456-14.08,78.677-14.08
			c57.685,0,78.912,7.893,101.376,16.256c4.075,1.493,8.171,3.029,12.48,4.501c1.152,0.384,2.325,0.576,3.477,0.576
			c4.416,0,8.555-2.773,10.091-7.189C364.001,29.909,361.036,23.851,355.468,21.931z"/>
	</g>
</g>
<g>
	<g>
		<path d="M447.478,178.091c-5.653-17.707-21.717-43.904-22.4-45.013c-3.093-5.035-9.664-6.613-14.677-3.499
			c-5.013,3.093-6.592,9.664-3.499,14.677c0.171,0.235,15.381,25.109,20.267,40.32c1.451,4.544,5.632,7.424,10.155,7.424
			c1.067,0,2.155-0.171,3.243-0.512C446.177,189.696,449.27,183.701,447.478,178.091z"/>
	</g>
</g>
<g>
</g>
<g>
</g>
<g>
</g>
<g>
</g>
<g>
</g>
<g>
</g>
<g>
</g>
<g>
</g>
<g>
</g>
<g>
</g>
<g>
</g>
<g>
</g>
<g>
</g>
<g>
</g>
<g>
</g>
</svg>
